# Blender v3.2.1 OBJ File: ''
# www.blender.org
mtllib Tower_N.mtl
o Cube.002
v 3.150000 41.500000 -3.149979
v -3.150000 41.500000 -3.149979
v -3.150000 41.500000 3.150021
v 3.150000 41.500000 3.150021
v 3.150000 38.000000 3.150018
v -3.150000 38.000000 3.150018
v -3.150000 38.000000 -3.149982
v -3.150000 0.000003 -3.150000
v 3.150000 0.000003 -3.150000
v 3.150000 -0.000003 3.150000
v -3.150000 -0.000003 3.150000
v 3.150000 38.000000 -3.149982
v -0.250000 41.500000 0.250021
v -0.250000 52.500000 0.250027
v -0.250000 52.500000 -0.249973
v -0.250000 41.500000 -0.249979
v 0.250000 52.500000 -0.249973
v 0.250000 41.500000 -0.249979
v 0.250000 52.500000 0.250027
v 0.250000 41.500000 0.250021
v -3.150000 22.000000 -3.149988
v -3.150000 30.000000 -3.149985
v 3.150000 30.000000 -3.149985
v 3.150000 22.000000 -3.149988
v 3.150000 30.000000 3.150015
v 3.150000 22.000000 3.150011
v -3.150000 22.000000 3.150011
v -3.150000 30.000000 3.150015
v 3.150000 34.000000 -3.149984
v -3.150000 34.000000 -3.149984
v -3.150000 34.000000 3.150017
v 3.150000 34.000000 3.150017
v -3.150000 26.000000 -3.149987
v -3.150000 26.000000 3.150013
v 3.150000 26.000000 -3.149987
v 3.150000 26.000000 3.150013
vt 0.625000 0.500000
vt 0.875000 0.500000
vt 0.875000 0.750000
vt 0.625000 0.750000
vt 0.562500 0.750000
vt 0.625000 1.000000
vt 0.562500 1.000000
vt 0.562500 0.000000
vt 0.625000 0.000000
vt 0.625000 0.250000
vt 0.562500 0.250000
vt 0.125000 0.500000
vt 0.375000 0.500000
vt 0.375000 0.750000
vt 0.125000 0.750000
vt 0.562500 0.500000
vt 0.375000 0.000000
vt 0.625000 0.000000
vt 0.625000 0.250000
vt 0.375000 0.250000
vt 0.625000 0.500000
vt 0.375000 0.500000
vt 0.625000 0.750000
vt 0.375000 0.750000
vt 0.625000 1.000000
vt 0.375000 1.000000
vt 0.875000 0.500000
vt 0.875000 0.750000
vt 0.468750 0.250000
vt 0.500000 0.250000
vt 0.500000 0.500000
vt 0.468750 0.500000
vt 0.500000 0.750000
vt 0.468750 0.750000
vt 0.468750 0.000000
vt 0.500000 0.000000
vt 0.500000 1.000000
vt 0.468750 1.000000
vt 0.531250 0.250000
vt 0.531250 0.500000
vt 0.531250 0.750000
vt 0.531250 0.000000
vt 0.531250 1.000000
vt 0.437500 0.750000
vt 0.437500 1.000000
vt 0.375000 1.000000
vt 0.375000 0.000000
vt 0.437500 0.000000
vt 0.437500 0.250000
vt 0.375000 0.250000
vt 0.437500 0.500000
vn 0.0000 1.0000 0.0000
vn 0.0000 -0.0000 1.0000
vn -1.0000 -0.0000 0.0000
vn 0.0000 -1.0000 -0.0000
vn 1.0000 -0.0000 0.0000
vn 0.0000 0.0000 -1.0000
usemtl Material.002
s 1
f 1/1/1 2/2/1 3/3/1 4/4/1
f 5/5/2 4/4/2 3/6/2 6/7/2
f 6/8/3 3/9/3 2/10/3 7/11/3
f 8/12/4 9/13/4 10/14/4 11/15/4
f 12/16/5 1/1/5 4/4/5 5/5/5
f 7/11/6 2/10/6 1/1/6 12/16/6
f 13/17/3 14/18/3 15/19/3 16/20/3
f 16/20/6 15/19/6 17/21/6 18/22/6
f 18/22/5 17/21/5 19/23/5 20/24/5
f 20/24/2 19/23/2 14/25/2 13/26/2
f 17/21/1 15/27/1 14/28/1 19/23/1
f 33/29/6 22/30/6 23/31/6 35/32/6
f 35/32/5 23/31/5 25/33/5 36/34/5
f 34/35/3 28/36/3 22/30/3 33/29/3
f 36/34/2 25/33/2 28/37/2 34/38/2
f 30/39/6 7/11/6 12/16/6 29/40/6
f 29/40/5 12/16/5 5/5/5 32/41/5
f 31/42/3 6/8/3 7/11/3 30/39/3
f 32/41/2 5/5/2 6/7/2 31/43/2
f 10/14/2 26/44/2 27/45/2 11/46/2
f 11/47/3 27/48/3 21/49/3 8/50/3
f 9/13/5 24/51/5 26/44/5 10/14/5
f 8/50/6 21/49/6 24/51/6 9/13/6
f 25/33/2 32/41/2 31/43/2 28/37/2
f 28/36/3 31/42/3 30/39/3 22/30/3
f 23/31/5 29/40/5 32/41/5 25/33/5
f 22/30/6 30/39/6 29/40/6 23/31/6
f 26/44/2 36/34/2 34/38/2 27/45/2
f 27/48/3 34/35/3 33/29/3 21/49/3
f 24/51/5 35/32/5 36/34/5 26/44/5
f 21/49/6 33/29/6 35/32/6 24/51/6
